# xmcd
# Copyright (C) 1995-1998 Ti Kan
#
# Track frame offsets:
#       183
#       31365
#       63898
#       96073
#       124953
#       148725
#       164028
#       185608
#       197928
#       220740
#       246093
#
# Disc length: 3534 seconds
#
# Revision: 0
# Processed by: cddbd v1.5.2PL0 Copyright (c) Steve Scherf et al.
# Submitted via: CD-Import v1.0
#
DISCID=a70dcc0b
DTITLE=Anthrax - Persistence Of Time
DYEAR=1900
DGENRE=
TTITLE0=Time
TTITLE1=Blood
TTITLE2=Keep It In The Family
TTITLE3=In My World
TTITLE4=Gridlock
TTITLE5=Intro To Reality
TTITLE6=Belly Of The Beast
TTITLE7=Got The Time
TTITLE8=H8 Red
TTITLE9=One Man Stands
TTITLE10=Discharge
EXTD=
EXTT0=
EXTT1=
EXTT2=
EXTT3=
EXTT4=
EXTT5=
EXTT6=
EXTT7=
EXTT8=
EXTT9=
EXTT10=
PLAYORDER=
